<svg viewBox="0 0 161 206">
	<path d="M147.84 5.583C108.613-5.917 72.838.35 40.517 24.384 8.196 48.42-4.788 83.89 1.566 130.795c44.2 4.264 69.408 13.503 75.623 27.717 6.216 14.214 8.771 30.044 7.666 47.488 9.807-17.574 13.537-37.344 11.188-59.311-3.522-32.95-10.98-40.316-8.701-52.527 2.279-12.211 10.98-13.374 10.98-13.374 2.21 1.938 4.075 3.295 5.595 4.07 1.519.775 3.453 1.292 5.8 1.55l18.44 23.066c-.966 3.49-1.243 6.203-.828 8.14 2.072 2.844 3.936 4.653 5.594 5.428 1.657.775 2.693 1.68 3.108 2.714l6.837 1.356 2.279-1.356c1.934.517 3.384.193 4.35-.97 1.451-1.744 8.91-10.66 8.91-10.66 1.381-1.034 2.072-2.261 2.072-3.683l-1.036-4.264c-1.934-11.759-3.315-19.253-4.144-22.484l-5.387-23.065c-1.657-12.793-3.453-20.998-5.387-24.616-1.933-3.618-4.765-7.495-8.494-11.63l11.81-18.801z" fill="#1A1A1D" fill-rule="nonzero"/>
</svg>
