<?xml version="1.0" encoding="UTF-8"?>
<svg width="161px" height="206px" viewBox="0 0 161 206" version="1.1" xmlns="http://www.w3.org/2000/svg" xmlns:xlink="http://www.w3.org/1999/xlink">
    <!-- Generator: Sketch 52.6 (67491) - http://www.bohemiancoding.com/sketch -->
    <title>Path 2 Copy</title>
    <desc>Created with Sketch.</desc>
    <g id="Page-1" stroke="none" stroke-width="1" fill="none" fill-rule="evenodd">
        <g id="android-chrome-256x256" transform="translate(-48.000000, -25.000000)" fill="#1A1A1D" fill-rule="nonzero">
            <path d="M195.840352,30.5829213 C156.61279,19.0825216 120.838359,25.3495934 88.5170589,49.3841366 C56.1957584,73.4186799 43.211988,108.889014 49.565748,155.795139 C93.7658171,160.059332 118.973669,169.298417 125.189304,183.512394 C131.404938,197.726372 133.960255,213.555573 132.855253,231 C142.662144,213.426355 146.391524,193.656005 144.043396,171.68895 C140.521203,138.738366 133.062441,131.372942 135.341507,119.161843 C137.620573,106.950744 146.322462,105.787783 146.322462,105.787783 C148.532465,107.726052 150.397156,109.082841 151.916533,109.858149 C153.43591,110.633457 155.369663,111.150329 157.717792,111.408764 C170.010936,126.785703 176.157508,134.474173 176.157508,134.474173 C175.190632,137.963058 174.914382,140.676636 175.328757,142.614905 C177.400635,145.457701 179.265326,147.266752 180.922828,148.04206 C182.580331,148.817368 183.61627,149.721894 184.030646,150.755638 L190.867844,152.112426 L193.14691,150.755638 C195.080663,151.27251 196.530978,150.949465 197.497854,149.786503 C198.948169,148.04206 206.406931,139.12602 206.406931,139.12602 C207.788183,138.092276 208.478809,136.864705 208.478809,135.443308 L207.44287,131.179115 C205.509117,119.420279 204.127865,111.925636 203.299113,108.695187 C199.707858,93.318248 197.91223,85.6297785 197.91223,85.6297785 C196.254727,72.837199 194.4591,64.6318576 192.525347,61.0137544 C190.591594,57.3956511 187.760027,53.5191118 184.030646,49.3841366 L195.840352,30.5829213 Z" id="Path-2-Copy"></path>
        </g>
    </g>
</svg>